<svg id="Layer_1" data-name="Layer 1" xmlns="http://www.w3.org/2000/svg" xmlns:xlink="http://www.w3.org/1999/xlink" width="896" height="512" viewBox="0 0 896 512"><defs><symbol id="Globe" data-name="Globe" viewBox="0 0 133.333 133.333"><path d="M128.7154,56.599c-.2916-1.3247-.3444-2.7289-.6889-4.0536a46.4334,46.4334,0,0,0-1.51-4.9543c-.8213-2.305-1.59-4.6364-2.6229-6.8355-1.2188-2.5433-2.6494-4.9543-4.0536-7.3917a29.5685,29.5685,0,0,0-5.4577-7.18,2.4843,2.4843,0,0,0-1.0862-.7152c-.4769-.1061-.7948.3443-1.2188,1.3247-.4769,1.1392.53,1.3247,1.0333,1.8281.5034.53,1.1127.9272,1.6161,1.4306a13.0066,13.0066,0,0,1,1.0863,1.2717c-.053.6358-.159,1.3777-.212,2.1195a26.3477,26.3477,0,0,1-.1324,2.8879,2.1426,2.1426,0,0,1-2.49,2.093c-.6889,0-.9009.3975-.8478,1.0068.0265.5829.0529,1.1392-.6889,1.4308-.1855.0529-.2914.7683-.159,1.06a6.1208,6.1208,0,0,1,.8213,3.4178c-.08.7683-.3179,1.1127-.9537,1.1921-.7419-1.8016-1.4837-3.5236-2.199-5.1927-.7419-.4769-2.3315.8213-2.093-1.4837-1.0068.5828-1.7752,1.06-2.8083,1.6691a6.6865,6.6865,0,0,0,2.1195,1.0331c.5828.053,1.2717-.0794,1.3776.6095a1.5709,1.5709,0,0,1-.6623,1.2717,1.1183,1.1183,0,0,0-.3973,1.6691c.53,1.0333,1.0862,2.04,1.563,3.0732a3.5767,3.5767,0,0,1,.1855.9539c.159,1.4837-.9537,2.5433-1.4041,3.8151a6.0546,6.0546,0,0,1-2.9144,3.2587A9.7436,9.7436,0,0,1,98.221,58.639a1.4262,1.4262,0,0,0-.8213.2385,20.3155,20.3155,0,0,0-1.8546,2.146.8773.8773,0,0,0,.159.8743c1.6426,1.0331,2.3315,2.7553,3.2587,4.292a1.3556,1.3556,0,0,1-.0265,1.1127,9.409,9.409,0,0,1-4,3.4707c-.9274-1.0068-1.7487-1.9605-2.6494-2.8083a1.9471,1.9471,0,0,0-1.3777-.4769,1.63,1.63,0,0,0-1.1127.6093c-.1061.1324.1855.7419.4238.9537.4769.424.6358.7949.212,1.2983a1.1592,1.1592,0,0,0,.0794,1.7485,23.3931,23.3931,0,0,0,2.199,2.093c.6358.5564,1.1657,2.5435.7419,3.2589a.6918.6918,0,0,1-.424.2914c-1.0068.212-.6889.7154-.2384,1.1923.6623.6889,1.2982,1.3776,2.0134,1.987a1.72,1.72,0,0,0,1.06.3708,1.8714,1.8714,0,0,1,1.8546,1.4043,6.56,6.56,0,0,1-1.2453-.2914,4.1513,4.1513,0,0,0-1.1392.1059c.08.3975.053.9537.3179,1.1392a4.9549,4.9549,0,0,0,2.0136,1.1392c2.04.3444,4.1065.4769,6.1466.7419.9009.1324,1.7485.45,2.6229.6623-.0265.159-.0265.2914-.0529.45a8.8828,8.8828,0,0,1-1.4043.1855c-2.0136-.159-4.0536-.3975-6.067-.5564-2.4376-.2118-4.5835-.8742-6.12-2.9938-1.0863-1.4571-2.358-2.8083-3.55-4.1859a.6632.6632,0,0,0-.1855.1059c.1324.3975.265.8213.424,1.3247-1.4308-.5034-1.8281-1.1127-1.6956-2.57.053-.5829.1324-1.1657-.6358-1.2453-.7684-.1059-.9274-.6093-1.0333-1.2188-.1059-.53-.212-1.0331-.3179-1.669,2.3844-.2385,3.4442,2.04,5.3518,2.7553a13.917,13.917,0,0,0-1.4043-2.8083,10.4209,10.4209,0,0,1-1.59-5.8022c-.0265-.98-.212-1.9605-.2916-2.9408a7.6159,7.6159,0,0,1,.1326-1.0863c.0264-.2118,0-.45,0-.9537a17.8717,17.8717,0,0,1-1.59,1.4571,1.1324,1.1324,0,0,1-.9272.2385c-.265-.1061-.424-.53-.5034-.8478a1.3341,1.3341,0,0,1,.1059-.8478,1.2106,1.2106,0,0,0-.6093-1.8281,2.7187,2.7187,0,0,1-1.51-2.093c-.08-.4769-.5564-1.2188-.8213-1.2188a6.3356,6.3356,0,0,0-3.2852.7419c-2.411,1.9075-4.61,4.08-6.8885,6.173a1.4053,1.4053,0,0,0-.4238.7419,31.6024,31.6024,0,0,1-.6093,3.5237,5.6923,5.6923,0,0,1-1.2188,2.305c-.5829.6623-1.3512.3708-1.6691-.477-.212-.53-.371-1.1127-.6093-1.6161-.8478-1.6426-.7948-3.7356-2.5169-4.9278a.8592.8592,0,0,1-.2649-.5828c-.1855-1.4838-.4505-2.9409-.5034-4.4246-.0265-.9537-.371-1.1657-1.1923-.9272a1.5074,1.5074,0,0,1-1.8016-.6889c-.265-.3975-.6095-.7154-.9009-1.0862A5.5674,5.5674,0,0,0,54.1617,54.4c-1.7487.4238-3.9476.4769-5.3518-1.4571-.159-.212-.7417-.1326-1.1127-.159-.3975-.0265-.8478.0794-1.1657-.1061-1.1392-.7152-2.199-1.51-3.3383-2.2519-.5828-.371-1.2188-.6358-1.8811-.98-.1853,1.1657.9539,3.6031,1.8546,3.868.7684.212.8213.6095.9009,1.2453.0265.3444.5034.9537.6358.9007a11.4927,11.4927,0,0,0,2.4109-1.06c.3444-.2385.5034-.7684.7684-1.1657.0529.1855.1059.3973.159.5828.98.8213,2.0136,1.6162,2.9673,2.4639.3179.2916.7154.7684.6889,1.1129-.212,1.6426-2.1195,2.2784-2.49,3.8945,0,.1061-.2385.159-.3444.212-1.5632.9272-3.0734,1.9075-4.6895,2.7288a39.2066,39.2066,0,0,1-5.2988,2.3315c-1.4837.53-1.775.1061-2.358-1.3776A22.1181,22.1181,0,0,0,34.6886,62.03c-.5032-.8213-1.3776-1.5632-1.4837-2.4376a9.9077,9.9077,0,0,0-1.1921-3.9476,44.9851,44.9851,0,0,1-2.0136-4.6629c-.2914.1591-.7154.3975-1.2188.6889a9.0579,9.0579,0,0,1,.5564,1.1392c.7948,2.5965,1.5367,5.2194,2.4109,7.8157A6.6467,6.6467,0,0,0,33.2049,62.56c.3181.4238.9274.6623,1.1394,1.1127.5034,1.1392.8213,2.358,1.3247,3.5237A1.9787,1.9787,0,0,0,38,68.6007c1.51-.2384,3.0734-.4238,4.61-.5564,1.4041-.1059,1.4041-.0264.9537,1.2983-.08.1853-.053.3708-.1324.53-.6358,1.9076-1.2188,3.7888-2.782,5.2988-2.1195,1.987-4,4.2126-5.9346,6.3851-1.4571,1.6161-1.1392,3.7886-.5034,5.3782a11.6237,11.6237,0,0,1,.7949,5.14,3.56,3.56,0,0,1-.8743,1.987,13.9328,13.9328,0,0,1-2.0666,1.6162c-.7152.5563-1.0068,1.1127-.3973,2.0134a3.283,3.283,0,0,1-.371,3.0469,6.4512,6.4512,0,0,0-.7419,1.4043,22.1733,22.1733,0,0,1-1.6955,3.4707c-.7949,1.0862-4.8749.8742-5.9611-.159a2.5477,2.5477,0,0,1-.4505-.477c-.4769-.9007-.9272-1.8016-1.4041-2.6757-.8213-1.51-1.7222-2.9675-2.4374-4.504-.7154-1.4837-1.0333-3.2058-1.9076-4.5835a6.0249,6.0249,0,0,1-.5564-5.67,2.0614,2.0614,0,0,0-.0264-1.06,15.0487,15.0487,0,0,0-.5829-1.8546c-.6889-1.6161-.9272-3.4177-2.2519-4.7689a2.3579,2.3579,0,0,1-.6095-2.3315,6.425,6.425,0,0,0,.1855-2.358,2.47,2.47,0,0,0-.8213-1.2717c-.4238-.45-1.0331-.7154-1.4571-1.1657-.5828-.6623-1.2451-.9007-1.8281-.159-.7948.98-1.8546.212-2.7288.53a1.6182,1.6182,0,0,1-.371-.4769,11.0188,11.0188,0,0,1-1.1923-3.55c-.053-.3179-.1324-.6358-.1855-.9537-.7154-3.3648.0265-6.5969.5564-9.8293a13.4009,13.4009,0,0,1,.4769-2.04c.3975-1.4837.9537-2.9409,1.4571-4.3716a7.9392,7.9392,0,0,1,1.4043-2.8879,15.17,15.17,0,0,1,3.2057-2.4109,33.7083,33.7083,0,0,1,3.1-1.5367c.159.2385.2118.2916.2118.3444.053.7948.08,1.6161.08,2.411.0265.7152.2384,1.1392,1.0862,1.1392a2.6861,2.6861,0,0,1,1.2453.5828c1.3247,1.06,2.2254.9274,3.0732-.5563.6093-1.0333.8743-1.0863,1.8811-.4769a3.9021,3.9021,0,0,0,3.2057.5828,4.8676,4.8676,0,0,1,2.3051-.1324c.9537.212,1.8544.1324,2.1989-.7419.5829-1.51,1.0068-3.0732,1.5632-4.8219-.53.1326-.9274.212-1.3247.3179-.2914.08-.7419.3444-.8743.2385-.9272-.7948-1.6161.08-2.3845.2914-.5563.159-1.06.4505-1.59.5829a.7938.7938,0,0,1-1.0068-1.0068c.2914-1.1923.6358-2.3845.98-3.7357-1.0068.5034-1.9075.9539-2.7818,1.4308-.1059.0529-.1059.3179-.1324.5034a6.3555,6.3555,0,0,1-.08.7417,2.8229,2.8229,0,0,1-.5034.7419c-.2649-.212-.6358-.371-.7683-.6623s0-.7154-.1059-1.06a6.492,6.492,0,0,0-.8213-2.1725,19.6492,19.6492,0,0,0-2.49-2.3578c0,.53-.159,1.0066.0264,1.2717a26.4792,26.4792,0,0,0,1.7752,2.093c.3973.424.98.8478-.0265,1.2718-.1855.0794-.2385.45-.371.6623-.159.3179-.3444.6093-.4769.8477-1.0333-1.4571-2.0136-2.8083-2.9143-4.08-.8478.5034-1.7487,1.0333-2.6494,1.6161-.159.08-.1855.371-.2916.5564q-.278.5564-.5563,1.1127c-.3975.7419-.7948,1.4837-1.1923,2.199A14.7467,14.7467,0,0,1,9.493,47.0611c-.265.3444-.8478.424-1.2983.6358-.1059-.4238-.4238-.9007-.3179-1.2717a9.1641,9.1641,0,0,1,.3179-1.1392c0-.0265.0265-.053.0265-.08.212-.7152.4769-1.4041.7419-2.093a3.3546,3.3546,0,0,1,.3179-.6093c.0265-.0265.0265-.0265.0265-.053a2.11,2.11,0,0,1,.4769-.3975,3.7438,3.7438,0,0,0,2.0136-3.7886,2.2468,2.2468,0,0,1,.5034-1.3512,25.8576,25.8576,0,0,1,1.6955-2.1195H12.8048a2.8123,2.8123,0,0,1-.2385-.2914c-.8478,1.5632-1.8016,3.0469-2.5169,4.6629-1.2717,2.8614-2.57,5.7491-3.5766,8.7164a61.4459,61.4459,0,0,0-1.8546,7.9216,57.1542,57.1542,0,0,0-1.0068,7.6568A54.5546,54.5546,0,0,0,4.6181,78.5624c.6358,2.6229,1.0333,5.3253,1.9076,7.8951a87.7184,87.7184,0,0,0,3.7621,8.9549,48.7346,48.7346,0,0,0,8.3985,12.6111A97.9024,97.9024,0,0,0,27.8,116.7665a47.7565,47.7565,0,0,0,12.3991,7.5243,85.6665,85.6665,0,0,0,9.4583,3.4177,56.6868,56.6868,0,0,0,9.7762,2.0136c7.4183.7154,14.863.5828,22.1223-1.4571a91.8668,91.8668,0,0,0,9.4848-3.0469,57.7551,57.7551,0,0,0,11.71-6.5439,58.1008,58.1008,0,0,0,11.0215-9.8293,11.39,11.39,0,0,0,.9537-1.8811,1.4076,1.4076,0,0,1,.45-.45c.6095.45.7949-.1855.98-.45,1.8017-2.6494,3.6827-5.2194,5.2724-7.9747a67.3457,67.3457,0,0,0,3.4177-7.1,57.4819,57.4819,0,0,0,2.093-5.5108c.5564-1.8546.98-3.7621,1.3512-5.67a34.9227,34.9227,0,0,0,.98-6.7559C129.1658,67.5674,129.9341,62.0568,128.7154,56.599ZM43.1138,94.4852c-.4505,1.1923-.477,2.5169-.8213,3.7621a18.9355,18.9355,0,0,1-1.2453,3.63c-.1855.424-.98.6093-1.5367.7683-.1855.053-.6887-.3179-.6887-.5032-.08-1.6691-1.3247-3.2323-.3444-4.9545a.4385.4385,0,0,0,0-.3179c-.7419-1.6955.3973-2.6229,1.3776-3.6562.9539-.98,1.7752-2.0664,2.7818-3.2587A5.4858,5.4858,0,0,1,43.1138,94.4852ZM72.4423,73.714c-.2118.08-.7683-.4238-.98-.7683a1.9347,1.9347,0,0,1-.3444-1.2982,4.194,4.194,0,0,1,.7419-1.2718c.5828.6623,1.1392,1.3247,1.8016,2.12C73.1577,73.0516,72.8663,73.555,72.4423,73.714Zm44.2183-40.8c.424.7152.7154,1.2451,1.1129,1.9075C116.6077,34.98,116.29,34.4766,116.6606,32.9135Zm-2.9143,14.1476c.1855-.053.3444-.371.3975-.5828.2118-1.0068.7152-1.2188,1.4571-.6095.6093-.6887,1.1923-1.3247,1.7485-1.987a2.4111,2.4111,0,0,0-.1324-2.7023c-.212-.2916-.4769-.5829-.7417-.9009,1.2717-.7154,1.2982-.8478.7152-2.2519a1.2071,1.2071,0,0,1-.1324-.53c.053-.5034.159-.98.2385-1.4837.1324.4769.2649.9272.3708,1.3777a3.148,3.148,0,0,0,2.3315,2.2519,9.2085,9.2085,0,0,0-.7948,1.3247,2.3228,2.3228,0,0,0-.1855,1.4306c.7948,1.7487.08,3.2589-1.8281,3.5237,0,.3444-.0265.6889,0,1.0333.08,1.0068-.2914,1.563-1.3776,1.6691a3.4151,3.4151,0,0,0-1.4308.6889c-.7683.53-1.2186.3973-1.3247-.5034C112.9781,48.121,112.8455,47.4056,113.7463,47.0611Zm-.0794,36.8794a2.1579,2.1579,0,0,1,.5828.0265c.0265.1061.08.2385.1059.3444-.3708.1855-.7152.53-1.0862.5564-1.4043.053-2.3315,1.0068-3.3913,1.6691a1.4953,1.4953,0,0,1-.7948.3444,5.112,5.112,0,0,1-1.1657-.53c.2914-.265.5564-.6889.9274-.8213C110.4346,84.9473,112.0507,84.444,113.6669,83.9406Zm-3.7888-12.9025a7.4517,7.4517,0,0,1,1.3512-1.06c.159-.1324.3975-.265.5564-.212a.764.764,0,0,1,.3179.5034,3.4,3.4,0,0,1-1.0068,3.1,17.0983,17.0983,0,0,1-1.2982-1.59A.7471.7471,0,0,1,109.8782,71.0381Zm-2.0134-15.8963c.2649.159.7683.424.7683.53a23.85,23.85,0,0,1-.8743,2.411c-.371-.5829-.9007-1.0333-.8478-1.3247A6.3215,6.3215,0,0,1,107.8648,55.1417Zm-.9539,7.9482a15.2751,15.2751,0,0,1,1.4308-1.1657,7.0854,7.0854,0,0,1,.5563,1.59,3.0317,3.0317,0,0,1-.98,2.9408,6.08,6.08,0,0,1-.5563-.8743c-.2385-.6093-.424-1.2186-.5564-1.6161C106.8315,63.4874,106.7784,63.196,106.9109,63.09Zm-8.4515-1.6161c-.0264-.0265-.4769-.3444-.4769-.4238.3179-.5034.7154-.98,1.0863-1.4837a3.4154,3.4154,0,0,1,.6093.9537C99.8105,61.1559,99.4661,61.5534,98.4593,61.4738Zm5.8022,19.6849c-.3444,1.1657-.7683,1.3512-1.881.7948a2.1668,2.1668,0,0,0-.9274-.2118c-1.8016-.08-4.0006-2.8879-3.6031-4.6364.0265-.1324.1324-.2385.3444-.5034a3.2907,3.2907,0,0,0,.6623,1.0068,2.1233,2.1233,0,0,0,1.2188.4238,5.4814,5.4814,0,0,0,1.775-.45.9333.9333,0,0,0,.4769-.6889c.08-1.7485,1.3512-2.8349,2.3845-4.0006.2118-.212,1.3776.1324,1.8281.53.53.45-.08.8478-.5829,1.0862-.7683.3444-.7154.98-.371,1.5367a1.6394,1.6394,0,0,1-.159,1.9605A14.0279,14.0279,0,0,0,104.2615,81.1587Zm1.59-.8213c.45-1.2982.7948-2.8349,2.6759-2.8614a12.1975,12.1975,0,0,0,1.669-.2914c.0265.08.053.1855.08.265-.371.2384-.7154.5034-1.0862.7417-2.0666,1.4043-1.59,1.4571-.5034,3.1263-.477.5564-.9274,1.06-1.4573,1.6691C106.4605,82.139,105.48,81.4767,105.8512,80.3374Zm15.6843,15.075a13.4422,13.4422,0,0,1-.6358,1.7222v.0265c-.0265.0264-.0265.0794-.053.1059v.0265a19.4516,19.4516,0,0,1-1.2451,2.5963c-.1855.3444-.3975.7154-.6095,1.06s-.4238.6889-.6623,1.0068c-.1855.2914-.3708.5563-.5563.8213-.2916.3973-.5829.7948-.8743,1.1657a6.3656,6.3656,0,0,1-.5828.6093c-.265.212-.53.4238-.7949.6093l-.0794.08c-.1855.159-.3444.2914-.53.4238-.53.424-.7419.1855-.8478-.3973-.0794-.4769-.212-.9274-.3973-1.6162-1.0863,1.3247-1.2188,1.2718-1.8546.1061a.8744.8744,0,0,0-.8213-.2914c-1.7752.8477-3.7886,1.2451-5.2194,2.7818-.371.3708-1.0862.3708-1.6161.6093-1.0862.45-2.1725,1.0068-3.3117,1.4306-.3444.1326-.8213-.1059-1.1923-.1853,0-.265-.0265-.3181,0-.3444,1.59-1.6426.8478-3.3648.053-4.9809a2.3314,2.3314,0,0,1,.0794-2.5169c.5564-.9009,1.2188-1.7222,1.8281-2.5963a5.8961,5.8961,0,0,1,3.3383-2.04,3.3771,3.3771,0,0,0,2.0136-1.6691,23.1435,23.1435,0,0,1,2.8349-3.7886c.2649-.2914,1.1392,0,1.722.0265.08.159.1855.2914.265.4238a14.3341,14.3341,0,0,0,1.1923-2.2784c.2649-.8478.6889-1.3247,1.6161-1.2717.1324,0,.2914.0264.4238.0264,1.8811.1061,1.8811.1061,1.1923,1.9342-.2914.7948.1855,1.4041,1.4837,1.8281.7419.2118.8478-.3444.9537-.8213.212-.8743.3975-1.7752.5829-2.6494a2.1017,2.1017,0,0,1,.2649-.7154,4.1645,4.1645,0,0,1,.7419-.5564,3.7555,3.7555,0,0,1,.371.8213,19.55,19.55,0,0,1,.4238,2.0931,1.4942,1.4942,0,0,1-.053.8478,2.0206,2.0206,0,0,0,.2385,2.5168A3.2139,3.2139,0,0,1,121.5355,95.4125Zm.8743-11.0214c-.7154-.6889-1.2718-.7684-2.0136-.0265-.53.53-1.3512.0265-1.7487-.8743a3.3884,3.3884,0,0,0-2.57-2.3315c-.6623-.0794-1.2453-2.1989-.7948-2.6759a2.8293,2.8293,0,0,1,.5034-.3179c.5828,1.59,1.8016.4505,2.7288.7154a9.4122,9.4122,0,0,1,2.6759,1.06c.5034.3444.7154,1.0862,1.0333,1.6691.3444.5563.6889,1.1127.98,1.6955a6.8431,6.8431,0,0,1,.2384,1.06C123.0722,84.3911,122.5954,84.55,122.41,84.3911Z" fill="#f16365"/><path d="M51.7767,6.1567a.7177.7177,0,0,1,.19.02,59.5464,59.5464,0,0,0-11.18,3.87c-.27,0-.51,0-.77-.02-.03-.06-.06-.11-.08-.16,1.35-.56,2.67-1.2,4.05-1.7,2.15-.77,4.35-1.48,6.55-2.14C50.9067,5.9167,51.3567,6.1267,51.7767,6.1567Z" fill="#f16365"/><path d="M61.7167,4.6167a56.4714,56.4714,0,0,0-8.59,1.3c.8-1.14,2.2-.87,3.23-1.11A19.1435,19.1435,0,0,1,61.7167,4.6167Z" fill="#f16365"/><path d="M21.3357,25.23a13.8144,13.8144,0,0,0-1.2451,1.2451c-.5829.6889-1.1392,1.4573-1.6691,2.199-1.3247,1.8016-2.6494,3.63-4.0006,5.4577a1.5165,1.5165,0,0,1-.1855-.1059,5.407,5.407,0,0,0,.7154-1.7222,1.3376,1.3376,0,0,1,.0529-.3179c.371-2.9673,2.9673-4.53,4.557-6.7559-.08.2649-.1324.53-.265,1.0862l.0265-.0264c.7154-.5034,1.2188-.9009,1.7487-1.2718C21.15,25.0713,21.23,25.1507,21.3357,25.23Z" fill="#f16365"/><path d="M65.978,6.817a.719.719,0,0,1-.3444.6358c-1.06.5829-2.0931,1.2983-3.3913.8478.8478-.371,2.0136-.53,2.358-1.1392.3444-.6358-.1061-1.6956-.1855-2.6229h.6889C65.395,5.3068,65.7395,6.0487,65.978,6.817Z" fill="#f16365"/><path d="M41.4712,11.4534c.0794.053.1853.08.2649.1324a17.3415,17.3415,0,0,0-1.3777,1.06c-.3444.2914-.53.7154-1.1657.3975-.7417-.371-1.1657-.08-.8213.7948-1.1392.2384-1.1392.2384-1.0862-1.0863,1.2982-.45,2.57-.9272,3.868-1.3511A.4787.4787,0,0,1,41.4712,11.4534Z" fill="#f16365"/><polygon points="41.763 11.559 41.763 11.586 41.736 11.586 41.763 11.559" fill="#f16365"/><path d="M120.8467,97.2936a19.4516,19.4516,0,0,1-1.2451,2.5963c-.1855.3444-.3975.7154-.6095,1.06s-.4238.6889-.6623,1.0068c-.1855.2914-.3708.5563-.5563.8213-.2916.3973-.5829.7948-.8743,1.1657a6.3656,6.3656,0,0,1-.5828.6093c-.265.212-.53.4238-.7949.6093A57.7924,57.7924,0,0,0,120.8467,97.2936Z" fill="#f16365"/><path d="M114.3556,84.3115c-.3708.1855-.7152.53-1.0862.5564-1.4043.053-2.3315,1.0068-3.3913,1.6691a1.4953,1.4953,0,0,1-.7948.3444,5.112,5.112,0,0,1-1.1657-.53c.2914-.265.5564-.6889.9274-.8213,1.59-.5829,3.2057-1.0863,4.8219-1.59a2.1579,2.1579,0,0,1,.5828.0265C114.2762,84.0732,114.3293,84.2056,114.3556,84.3115Z" fill="#fcf5a7"/><path d="M98.4593,61.4738c-.0264-.0265-.4769-.3444-.4769-.4238.3179-.5034.7154-.98,1.0863-1.4837a3.4154,3.4154,0,0,1,.6093.9537C99.8105,61.1559,99.4661,61.5534,98.4593,61.4738Z" fill="#fcf5a7"/><path d="M117.7735,34.821c-1.1657.159-1.4837-.3444-1.1129-1.9075C117.0846,33.6287,117.376,34.1586,117.7735,34.821Z" fill="#fcf5a7"/><path d="M119.0186,42.3982c.7948,1.7487.08,3.2589-1.8281,3.5237,0,.3444-.0265.6889,0,1.0333.08,1.0068-.2914,1.563-1.3776,1.6691a3.4151,3.4151,0,0,0-1.4308.6889c-.7683.53-1.2186.3973-1.3247-.5034-.0794-.6889-.212-1.4043.6889-1.7487.1855-.053.3444-.371.3975-.5828.2118-1.0068.7152-1.2188,1.4571-.6095.6093-.6887,1.1923-1.3247,1.7485-1.987a2.4111,2.4111,0,0,0-.1324-2.7023c-.212-.2916-.4769-.5829-.7417-.9009,1.2717-.7154,1.2982-.8478.7152-2.2519a1.2071,1.2071,0,0,1-.1324-.53c.053-.5034.159-.98.2385-1.4837.1324.4769.2649.9272.3708,1.3777a3.148,3.148,0,0,0,2.3315,2.2519,9.2085,9.2085,0,0,0-.7948,1.3247A2.3228,2.3228,0,0,0,119.0186,42.3982Z" fill="#fcf5a7"/><path d="M108.633,55.6717a23.85,23.85,0,0,1-.8743,2.411c-.371-.5829-.9007-1.0333-.8478-1.3247a6.3215,6.3215,0,0,1,.9539-1.6162C108.13,55.3007,108.633,55.5657,108.633,55.6717Z" fill="#fcf5a7"/><path d="M108.739,65.3155a4.14,4.14,0,0,1-.8213,1.1392,6.08,6.08,0,0,1-.5563-.8743c-.2385-.6093-.424-1.2186-.5564-1.6161.0265-.4769-.0265-.7683.1059-.8743a15.2751,15.2751,0,0,1,1.4308-1.1657,7.0854,7.0854,0,0,1,.5563,1.59A4.1791,4.1791,0,0,1,108.739,65.3155Z" fill="#fcf5a7"/><path d="M111.097,73.37a17.0983,17.0983,0,0,1-1.2982-1.59.7471.7471,0,0,1,.0794-.7419,7.4517,7.4517,0,0,1,1.3512-1.06c.159-.1324.3975-.265.5564-.212a.764.764,0,0,1,.3179.5034A3.4,3.4,0,0,1,111.097,73.37Z" fill="#fcf5a7"/><path d="M105.9571,74.5088c-.7683.3444-.7154.98-.371,1.5367a1.6394,1.6394,0,0,1-.159,1.9605,14.0279,14.0279,0,0,0-1.1657,3.1528c-.3444,1.1657-.7683,1.3512-1.881.7948a2.1668,2.1668,0,0,0-.9274-.2118c-1.8016-.08-4.0006-2.8879-3.6031-4.6364.0265-.1324.1324-.2385.3444-.5034a3.2907,3.2907,0,0,0,.6623,1.0068,2.1233,2.1233,0,0,0,1.2188.4238,5.4814,5.4814,0,0,0,1.775-.45.9333.9333,0,0,0,.4769-.6889c.08-1.7485,1.3512-2.8349,2.3845-4.0006.2118-.212,1.3776.1324,1.8281.53C107.07,73.8729,106.4605,74.27,105.9571,74.5088Z" fill="#fcf5a7"/><path d="M108.6861,81.3177c-.477.5564-.9274,1.06-1.4573,1.6691-.7683-.8478-1.7485-1.51-1.3776-2.6494.45-1.2982.7948-2.8349,2.6759-2.8614a12.1975,12.1975,0,0,0,1.669-.2914c.0265.08.053.1855.08.265-.371.2384-.7154.5034-1.0862.7417C107.1229,79.5957,107.6,79.6486,108.6861,81.3177Z" fill="#fcf5a7"/><path d="M123.443,84.3646c-.3708.0265-.8477.1855-1.0331.0265-.7154-.6889-1.2718-.7684-2.0136-.0265-.53.53-1.3512.0265-1.7487-.8743a3.3884,3.3884,0,0,0-2.57-2.3315c-.6623-.0794-1.2453-2.1989-.7948-2.6759a2.8293,2.8293,0,0,1,.5034-.3179c.5828,1.59,1.8016.4505,2.7288.7154a9.4122,9.4122,0,0,1,2.6759,1.06c.5034.3444.7154,1.0862,1.0333,1.6691.3444.5563.6889,1.1127.98,1.6955A6.8431,6.8431,0,0,1,123.443,84.3646Z" fill="#fcf5a7"/><path d="M121.5355,95.4125a13.4422,13.4422,0,0,1-.6358,1.7222v.0265c-.0265.0264-.0265.0794-.053.1059v.0265a57.7924,57.7924,0,0,1-5.3253,7.8686l-.0794.08c-.1855.159-.3444.2914-.53.4238-.53.424-.7419.1855-.8478-.3973-.0794-.4769-.212-.9274-.3973-1.6162-1.0863,1.3247-1.2188,1.2718-1.8546.1061a.8744.8744,0,0,0-.8213-.2914c-1.7752.8477-3.7886,1.2451-5.2194,2.7818-.371.3708-1.0862.3708-1.6161.6093-1.0862.45-2.1725,1.0068-3.3117,1.4306-.3444.1326-.8213-.1059-1.1923-.1853,0-.265-.0265-.3181,0-.3444,1.59-1.6426.8478-3.3648.053-4.9809a2.3314,2.3314,0,0,1,.0794-2.5169c.5564-.9009,1.2188-1.7222,1.8281-2.5963a5.8961,5.8961,0,0,1,3.3383-2.04,3.3771,3.3771,0,0,0,2.0136-1.6691,23.1435,23.1435,0,0,1,2.8349-3.7886c.2649-.2914,1.1392,0,1.722.0265.08.159.1855.2914.265.4238a14.3341,14.3341,0,0,0,1.1923-2.2784c.2649-.8478.6889-1.3247,1.6161-1.2717.1324,0,.2914.0264.4238.0264,1.8811.1061,1.8811.1061,1.1923,1.9342-.2914.7948.1855,1.4041,1.4837,1.8281.7419.2118.8478-.3444.9537-.8213.212-.8743.3975-1.7752.5829-2.6494a2.1017,2.1017,0,0,1,.2649-.7154,4.1645,4.1645,0,0,1,.7419-.5564,3.7555,3.7555,0,0,1,.371.8213,19.55,19.55,0,0,1,.4238,2.0931,1.4942,1.4942,0,0,1-.053.8478,2.0206,2.0206,0,0,0,.2385,2.5168A3.2139,3.2139,0,0,1,121.5355,95.4125Z" fill="#fcf5a7"/><path d="M73.6611,72.4954c-.5034.5563-.7948,1.06-1.2188,1.2186-.2118.08-.7683-.4238-.98-.7683a1.9347,1.9347,0,0,1-.3444-1.2982,4.194,4.194,0,0,1,.7419-1.2718C72.4423,71.0381,72.9988,71.7,73.6611,72.4954Z" fill="#fcf5a7"/><path d="M43.1138,94.4852c-.4505,1.1923-.477,2.5169-.8213,3.7621a18.9355,18.9355,0,0,1-1.2453,3.63c-.1855.424-.98.6093-1.5367.7683-.1855.053-.6887-.3179-.6887-.5032-.08-1.6691-1.3247-3.2323-.3444-4.9545a.4385.4385,0,0,0,0-.3179c-.7419-1.6955.3973-2.6229,1.3776-3.6562.9539-.98,1.7752-2.0664,2.7818-3.2587A5.4858,5.4858,0,0,1,43.1138,94.4852Z" fill="#fcf5a7"/><path d="M114.7266,30.0521c-.5034-.5034-1.1127-.9009-1.6161-1.4306-.5034-.5034-1.51-.6889-1.0333-1.8281.424-.98.7419-1.4308,1.2188-1.3247A62.09,62.09,0,0,0,66.6667,4.4061c-1.6691,0-3.3117.0529-4.9543.2118-.4769.212-.9272.3975-1.59.6889.5564.424,1.06.8213,1.5367,1.1923a.9412.9412,0,0,1-.053.265c-.6093-.08-1.2453-.1855-1.8546-.265a26.2708,26.2708,0,0,0-3.2058-.3179c-.53,0-1.0331.45-1.59.6093-1.1127.3444-2.2519.6623-3.3911.9274a20.0262,20.0262,0,0,0-2.5169.45C47.83,8.645,46.6639,9.3339,45.5246,9.89c-.1324-.2916-.2914-.5829-.45-.8743-.3179.1855-.7419.3444-.9009.6358-.371.6623-.5563,1.4571-1.6691,1.2453-.1855-.053-.5034.4238-.7417.6623v.0264H41.736a17.3415,17.3415,0,0,0-1.3777,1.06c-.3444.2914-.53.7154-1.1657.3975-.7417-.371-1.1657-.08-.8213.7948-1.1392.2384-1.1392.2384-1.0862-1.0863,1.2982-.45,2.57-.9272,3.868-1.3511a.4787.4787,0,0,1,.3181.0529,1.2875,1.2875,0,0,0,.2914.1061c.0794-.424.1855-.7949.3179-1.4043-.424-.0265-.8478-.053-1.2982-.1059A62.0531,62.0531,0,0,0,19.3222,26.29c.7154-.5034,1.2188-.9009,1.7487-1.2718.0794.053.159.1324.2649.212a13.8144,13.8144,0,0,0-1.2451,1.2451c-.5829.6889-1.1392,1.4573-1.6691,2.199-1.3247,1.8016-2.6494,3.63-4.0006,5.4577a1.5165,1.5165,0,0,1-.1855-.1059,5.407,5.407,0,0,0,.7154-1.7222,1.3376,1.3376,0,0,1,.0529-.3179c-.6358.9009-1.2451,1.8546-1.8016,2.8083h.7948a25.8576,25.8576,0,0,0-1.6955,2.1195,2.2468,2.2468,0,0,0-.5034,1.3512,3.7438,3.7438,0,0,1-2.0136,3.7886,2.11,2.11,0,0,0-.4769.3975c0,.0265,0,.0265-.0265.053-.371.8742-.7154,1.775-1.06,2.7023,0,.0265-.0265.053-.0265.08a9.1641,9.1641,0,0,0-.3179,1.1392c-.1059.371.212.8478.3179,1.2717.4505-.2118,1.0333-.2914,1.2983-.6358a14.7467,14.7467,0,0,0,1.2717-2.2784c.3975-.7154.7948-1.4571,1.1923-2.199q.2782-.5564.5563-1.1127c.1061-.1855.1326-.4769.2916-.5564.9007-.5828,1.8016-1.1127,2.6494-1.6161.9007,1.2717,1.881,2.6229,2.9143,4.08.1324-.2384.3179-.53.4769-.8477.1324-.212.1855-.5829.371-.6623,1.0068-.424.4238-.8478.0265-1.2718a26.4792,26.4792,0,0,1-1.7752-2.093c-.1853-.265-.0264-.7419-.0264-1.2717a19.6492,19.6492,0,0,1,2.49,2.3578,6.492,6.492,0,0,1,.8213,2.1725c.1059.3444-.0265.7684.1059,1.06s.5034.45.7683.6623a2.8229,2.8229,0,0,0,.5034-.7419,6.3555,6.3555,0,0,0,.08-.7417c.0265-.1855.0265-.4505.1324-.5034.8743-.4769,1.775-.9274,2.7818-1.4308-.3444,1.3512-.6889,2.5435-.98,3.7357a.7938.7938,0,0,0,1.0068,1.0068c.53-.1324,1.0333-.424,1.59-.5829.7684-.2118,1.4573-1.0862,2.3845-.2914.1324.1059.5829-.159.8743-.2385.3973-.1059.7948-.1853,1.3247-.3179-.5564,1.7487-.98,3.3117-1.5632,4.8219-.3444.8743-1.2451.9539-2.1989.7419a4.8676,4.8676,0,0,0-2.3051.1324,3.9021,3.9021,0,0,1-3.2057-.5828c-1.0068-.6095-1.2718-.5564-1.8811.4769-.8478,1.4837-1.7485,1.6161-3.0732.5563a2.6861,2.6861,0,0,0-1.2453-.5828c-.8478,0-1.06-.424-1.0862-1.1392,0-.7949-.0265-1.6162-.08-2.411,0-.0529-.0529-.1059-.2118-.3444a33.7083,33.7083,0,0,0-3.1,1.5367,15.17,15.17,0,0,0-3.2057,2.4109A7.9392,7.9392,0,0,0,6.7641,51.883c-.5034,1.4306-1.06,2.8879-1.4571,4.3716a58.7635,58.7635,0,0,0-.9009,10.4121c0,.7948.0265,1.6161.053,2.4109a11.0188,11.0188,0,0,0,1.1923,3.55,1.6182,1.6182,0,0,0,.371.4769c.8742-.3179,1.934.45,2.7288-.53.5829-.7417,1.2453-.5034,1.8281.159.424.45,1.0333.7154,1.4571,1.1657a2.47,2.47,0,0,1,.8213,1.2717,6.425,6.425,0,0,1-.1855,2.358,2.3579,2.3579,0,0,0,.6095,2.3315c1.3247,1.3512,1.563,3.1528,2.2519,4.7689a15.0487,15.0487,0,0,1,.5829,1.8546,2.0614,2.0614,0,0,1,.0264,1.06,6.0249,6.0249,0,0,0,.5564,5.67c.8743,1.3777,1.1923,3.1,1.9076,4.5835.7152,1.5365,1.6161,2.9938,2.4374,4.504.4769.8742.9272,1.775,1.4041,2.6757a2.5477,2.5477,0,0,0,.4505.477c1.0862,1.0331,5.1662,1.2451,5.9611.159a22.1733,22.1733,0,0,0,1.6955-3.4707,6.4512,6.4512,0,0,1,.7419-1.4043,3.283,3.283,0,0,0,.371-3.0469c-.6095-.9007-.3179-1.4571.3973-2.0134a13.9328,13.9328,0,0,0,2.0666-1.6162,3.56,3.56,0,0,0,.8743-1.987,11.6237,11.6237,0,0,0-.7949-5.14c-.6358-1.59-.9537-3.7621.5034-5.3782,1.9342-2.1725,3.8151-4.3981,5.9346-6.3851,1.5632-1.51,2.1462-3.3911,2.782-5.2988.0794-.159.0529-.3444.1324-.53.45-1.3247.45-1.4043-.9537-1.2983-1.5367.1326-3.1.3181-4.61.5564a1.9787,1.9787,0,0,1-2.3313-1.4041c-.5034-1.1657-.8213-2.3845-1.3247-3.5237-.212-.45-.8213-.6889-1.1394-1.1127a6.6467,6.6467,0,0,1-1.4571-1.9342c-.8742-2.5963-1.6161-5.2192-2.4109-7.8157a9.0579,9.0579,0,0,0-.5564-1.1392c.5034-.2914.9274-.53,1.2188-.6889a44.9851,44.9851,0,0,0,2.0136,4.6629,9.9077,9.9077,0,0,1,1.1921,3.9476c.1061.8743.98,1.6162,1.4837,2.4376a22.1181,22.1181,0,0,1,1.8281,3.1528c.5829,1.4837.8743,1.9075,2.358,1.3776a39.2066,39.2066,0,0,0,5.2988-2.3315C45.79,63.4078,47.3,62.4276,48.8629,61.5c.1059-.053.3444-.1059.3444-.212.371-1.6161,2.2784-2.2519,2.49-3.8945.0265-.3444-.371-.8213-.6889-1.1129-.9537-.8477-1.987-1.6426-2.9673-2.4639-.053-.1855-.1061-.3973-.159-.5828-.265.3973-.424.9272-.7684,1.1657a11.4927,11.4927,0,0,1-2.4109,1.06c-.1324.053-.6093-.5563-.6358-.9007-.08-.6358-.1324-1.0333-.9009-1.2453-.9007-.2649-2.04-2.7023-1.8546-3.868.6623.3444,1.2983.6093,1.8811.98,1.1392.7417,2.199,1.5367,3.3383,2.2519.3179.1855.7683.08,1.1657.1061.371.0264.9537-.053,1.1127.159,1.4043,1.934,3.6031,1.881,5.3518,1.4571a5.5674,5.5674,0,0,1,6.0936,2.199c.2914.3708.6358.6887.9009,1.0862a1.5074,1.5074,0,0,0,1.8016.6889c.8213-.2385,1.1657-.0265,1.1923.9272.0529,1.4837.3179,2.9408.5034,4.4246a.8592.8592,0,0,0,.2649.5828c1.7222,1.1923,1.6691,3.2852,2.5169,4.9278.2384.5034.3973,1.0863.6093,1.6161.3179.8478,1.0862,1.1394,1.6691.477a5.6923,5.6923,0,0,0,1.2188-2.305,31.6024,31.6024,0,0,0,.6093-3.5237,1.4053,1.4053,0,0,1,.4238-.7419c2.2786-2.093,4.4775-4.2655,6.8885-6.173a6.3356,6.3356,0,0,1,3.2852-.7419c.2649,0,.7417.7419.8213,1.2188a2.7187,2.7187,0,0,0,1.51,2.093A1.2106,1.2106,0,0,1,85.08,62.984a1.3341,1.3341,0,0,0-.1059.8478c.0794.3179.2384.7417.5034.8478a1.1324,1.1324,0,0,0,.9272-.2385,17.8717,17.8717,0,0,0,1.59-1.4571c0,.5034.0264.7419,0,.9537a7.6159,7.6159,0,0,0-.1326,1.0863c.08.98.265,1.9605.2916,2.9408a10.4209,10.4209,0,0,0,1.59,5.8022,13.917,13.917,0,0,1,1.4043,2.8083C89.24,75.86,88.18,73.5815,85.7953,73.82c.1059.6358.212,1.1392.3179,1.669.1059.6095.2649,1.1129,1.0333,1.2188.7683.08.6889.6623.6358,1.2453-.1324,1.4571.2649,2.0664,1.6956,2.57-.159-.5034-.2916-.9272-.424-1.3247a.6632.6632,0,0,1,.1855-.1059c1.1923,1.3776,2.4639,2.7288,3.55,4.1859,1.5365,2.12,3.6825,2.782,6.12,2.9938,2.0134.159,4.0535.3975,6.067.5564a8.8828,8.8828,0,0,0,1.4043-.1855c.0264-.159.0264-.2914.0529-.45-.8743-.212-1.722-.53-2.6229-.6623-2.04-.265-4.1065-.3975-6.1466-.7419a4.9549,4.9549,0,0,1-2.0136-1.1392c-.2649-.1855-.2384-.7417-.3179-1.1392a4.1513,4.1513,0,0,1,1.1392-.1059,6.56,6.56,0,0,0,1.2453.2914,1.8714,1.8714,0,0,0-1.8546-1.4043,1.72,1.72,0,0,1-1.06-.3708c-.7152-.6095-1.3511-1.2982-2.0134-1.987-.4505-.4769-.7684-.98.2384-1.1923a.6918.6918,0,0,0,.424-.2914c.4238-.7154-.1061-2.7024-.7419-3.2589a23.3931,23.3931,0,0,1-2.199-2.093,1.1592,1.1592,0,0,1-.0794-1.7485c.4238-.5034.2649-.8743-.212-1.2983-.2384-.2118-.53-.8213-.4238-.9537a1.63,1.63,0,0,1,1.1127-.6093,1.9471,1.9471,0,0,1,1.3777.4769c.9007.8478,1.722,1.8016,2.6494,2.8083a9.409,9.409,0,0,0,4-3.4707,1.3556,1.3556,0,0,0,.0265-1.1127c-.9272-1.5367-1.6161-3.2589-3.2587-4.292a.8773.8773,0,0,1-.159-.8743A20.3155,20.3155,0,0,1,97.4,58.8775a1.4262,1.4262,0,0,1,.8213-.2385,9.7436,9.7436,0,0,0,5.6961-1.4306,6.0546,6.0546,0,0,0,2.9144-3.2587c.45-1.2718,1.563-2.3315,1.4041-3.8151a3.5767,3.5767,0,0,0-.1855-.9539c-.4769-1.0331-1.0331-2.04-1.563-3.0732a1.1183,1.1183,0,0,1,.3973-1.6691,1.5709,1.5709,0,0,0,.6623-1.2717c-.1059-.6889-.7948-.5564-1.3776-.6095A6.6865,6.6865,0,0,1,104.05,41.524c1.0331-.6095,1.8016-1.0863,2.8083-1.6691-.2385,2.305,1.3511,1.0068,2.093,1.4837.7154,1.6691,1.4571,3.3911,2.199,5.1927.6358-.0794.8742-.4238.9537-1.1921a6.1208,6.1208,0,0,0-.8213-3.4178c-.1324-.2914-.0265-1.0068.159-1.06.7417-.2916.7154-.8478.6889-1.4308-.053-.6093.159-1.0068.8478-1.0068a2.1426,2.1426,0,0,0,2.49-2.093,26.3477,26.3477,0,0,0,.1324-2.8879c.053-.7417.159-1.4837.212-2.1195A13.0066,13.0066,0,0,0,114.7266,30.0521ZM65.6335,7.4528c-1.06.5829-2.0931,1.2983-3.3913.8478.8478-.371,2.0136-.53,2.358-1.1392.3444-.6358-.1061-1.6956-.1855-2.6229h.6889c.2914.7683.6358,1.51.8743,2.2784A.719.719,0,0,1,65.6335,7.4528Z" fill="#fcf5a7"/><path d="M8.9667,43.1167c-.27.69-.53,1.37-.75,2.09.35-.93.69-1.83,1.06-2.7A3.187,3.187,0,0,0,8.9667,43.1167Zm-3.66,13.14a14.07,14.07,0,0,0-.48,2.04c-.53,3.23-1.27,6.46-.55,9.83.05.32.13.63.18.95-.02-.79-.05-1.62-.05-2.41A58.6688,58.6688,0,0,1,5.3067,56.2567Zm124.95-2.65a64.9173,64.9173,0,1,0-74.19,77.1,65.01,65.01,0,0,0,21.2,0,64.95,64.95,0,0,0,52.99-77.1Zm-115.25-21.62a55.1211,55.1211,0,0,1,4.29-5.67l.03-.03a61.9428,61.9428,0,0,1,21.46-16.24,59.5464,59.5464,0,0,1,11.18-3.87,8.512,8.512,0,0,1,1.16-.26,56.4714,56.4714,0,0,1,8.59-1.3c1.64-.16,3.28-.21,4.95-.21a62.3483,62.3483,0,0,1,62.26,62.26,61.4515,61.4515,0,0,1-8.03,30.47v.02c-.02.03-.02.08-.05.11v.03a57.2764,57.2764,0,0,1-5.33,7.87.57.57,0,0,0-.07.08,62.1982,62.1982,0,0,1-110.99-36.17c-.02-.79-.05-1.62-.05-2.41a58.6688,58.6688,0,0,1,.9-10.41,58.4147,58.4147,0,0,1,2.89-10.97c0-.03.02-.05.02-.08.35-.93.69-1.83,1.06-2.7.03-.03.03-.03.03-.06a65.4557,65.4557,0,0,1,3.9-7.65C13.7567,33.8367,14.3667,32.8866,15.0067,31.9867Z" fill="#f16365"/><path d="M60.1267,5.3067c.55.42,1.06.82,1.53,1.19a.858.858,0,0,1-.05.27c-.61-.08-1.25-.19-1.85-.27a26.839,26.839,0,0,0-3.21-.32c-.53,0-1.03.45-1.59.61-1.11.35-2.25.67-3.39.93a21.4472,21.4472,0,0,0-2.52.45c-1.22.48-2.38,1.17-3.52,1.72-.13-.29-.29-.58-.45-.87-.32.18-.74.34-.9.64-.37.66-.56,1.45-1.67,1.24-.19-.05-.51.42-.74.66.08-.42.18-.79.31-1.4-.42-.03-.84-.05-1.29-.11a59.5464,59.5464,0,0,1,11.18-3.87,8.512,8.512,0,0,1,1.16-.26,56.4714,56.4714,0,0,1,8.59-1.3C61.2367,4.8266,60.7867,5.0166,60.1267,5.3067Z" fill="#f16365"/><path d="M66.6667,2.6667a64,64,0,1,1-64,64,64,64,0,0,1,64-64m0-2.6667a66.6667,66.6667,0,1,0,66.6667,66.6667A66.7422,66.7422,0,0,0,66.6667,0Z" fill="#f16365"/></symbol><symbol id="_1" data-name="1" viewBox="0 0 48 96"><path d="M47.97,22.89a23.9954,23.9954,0,0,0-47.94,0C.02,23.25,0,23.62,0,24,0,48,19.5,96,24,96S48,48,48,24C48,23.62,47.98,23.25,47.97,22.89ZM24,37.24a13.5,13.5,0,1,1,13.5-13.5A13.5011,13.5011,0,0,1,24,37.24Z" fill="#f16365"/><path d="M37.5,23.74A13.5,13.5,0,1,1,24,10.24,13.5011,13.5011,0,0,1,37.5,23.74Z" fill="#fcf5a7"/></symbol><symbol id="_3" data-name="3" viewBox="0 0 64 56"><polygon points="4 4 60 4 32 52 4 4" fill="#fcf5a7" stroke="#f16365" stroke-linecap="round" stroke-linejoin="round" stroke-width="3"/><circle cx="4" cy="4" r="3" fill="#fcf5a7"/><path d="M4,2A2,2,0,1,1,2,4,2.0023,2.0023,0,0,1,4,2M4,0A4,4,0,1,0,8,4,4,4,0,0,0,4,0Z" fill="#f16365"/><circle cx="60" cy="4" r="3" fill="#fcf5a7"/><path d="M60,2a2,2,0,1,1-2,2,2.0023,2.0023,0,0,1,2-2m0-2a4,4,0,1,0,4,4,4,4,0,0,0-4-4Z" fill="#f16365"/><circle cx="32" cy="52" r="3" fill="#fcf5a7"/><path d="M32,50a2,2,0,1,1-2,2,2.0023,2.0023,0,0,1,2-2m0-2a4,4,0,1,0,4,4,4,4,0,0,0-4-4Z" fill="#f16365"/></symbol><symbol id="_4" data-name="4" viewBox="0 0 8 64"><line x1="4" y1="4" x2="4" y2="60" fill="none" stroke="#f16365" stroke-miterlimit="10" stroke-width="2"/><line x1="4" y1="4" x2="4" y2="60" fill="#fcf5a7"/><circle cx="4" cy="60" r="3" fill="#fcf5a7"/><path d="M4,58a2,2,0,1,1-2,2,2.0023,2.0023,0,0,1,2-2m0-2a4,4,0,1,0,4,4,4,4,0,0,0-4-4Z" fill="#f16365"/><circle cx="4" cy="4" r="3" fill="#fcf5a7"/><path d="M4,2A2,2,0,1,1,2,4,2.0023,2.0023,0,0,1,4,2M4,0A4,4,0,1,0,8,4,4,4,0,0,0,4,0Z" fill="#f16365"/></symbol><symbol id="_5" data-name="5" viewBox="0 0 16 16"><circle cx="8" cy="8" r="7" fill="#fcf5a7"/><path d="M8,2A6,6,0,1,1,2,8,6.0068,6.0068,0,0,1,8,2M8,0a8,8,0,1,0,8,8A8,8,0,0,0,8,0Z" fill="#f16365"/></symbol><symbol id="_6" data-name="6" viewBox="0 0 8 8"><circle cx="4" cy="4" r="3" fill="#fcf5a7"/><path d="M4,2A2,2,0,1,1,2,4,2.0023,2.0023,0,0,1,4,2M4,0A4,4,0,1,0,8,4,4,4,0,0,0,4,0Z" fill="#f16365"/></symbol><symbol id="Gl-r" data-name="Gl-r" viewBox="0 0 416 416"><use id="Globe-3" data-name="Globe" width="133.3334" height="133.3333" transform="translate(168 168) scale(0.6)" xlink:href="#Globe"/><use width="48" height="96" transform="translate(192 80) scale(0.6667)" xlink:href="#_1"/><use width="48" height="96" transform="translate(224 336) rotate(180) scale(0.6667)" xlink:href="#_1"/><use width="48" height="96" transform="translate(106.1766 128.804) rotate(-45) scale(0.6667)" xlink:href="#_1"/><use width="48" height="96" transform="translate(309.8234 287.196) rotate(135) scale(0.6667)" xlink:href="#_1"/><use width="48" height="96" transform="translate(80 224) rotate(-90) scale(0.6667)" xlink:href="#_1"/><use width="48" height="96" transform="translate(336 192) rotate(90) scale(0.6667)" xlink:href="#_1"/><use width="48" height="96" transform="translate(128.804 309.8234) rotate(-135) scale(0.6667)" xlink:href="#_1"/><use width="48" height="96" transform="translate(287.196 106.1766) rotate(45) scale(0.6667)" xlink:href="#_1"/><use width="64" height="56" transform="translate(126.9562 75.2212) rotate(-22.5) scale(0.75)" xlink:href="#_3"/><use width="64" height="56" transform="translate(289.0438 341.1055) rotate(157.5) scale(0.75)" xlink:href="#_3"/><use width="64" height="56" transform="translate(56.6891 171.4657) rotate(-67.5) scale(0.75)" xlink:href="#_3"/><use width="64" height="56" transform="translate(359.3109 244.861) rotate(112.5) scale(0.75)" xlink:href="#_3"/><use width="64" height="56" transform="translate(75.0578 289.2072) rotate(-112.5) scale(0.75)" xlink:href="#_3"/><use width="64" height="56" transform="translate(340.9422 127.1195) rotate(67.5) scale(0.75)" xlink:href="#_3"/><use width="64" height="56" transform="translate(171.3024 359.4743) rotate(-157.5) scale(0.75)" xlink:href="#_3"/><use width="64" height="56" transform="translate(244.6976 56.8524) rotate(22.5) scale(0.75)" xlink:href="#_3"/><use id="_4-3" data-name="4" width="8" height="64" transform="translate(212 64) rotate(180)" xlink:href="#_4"/><use width="8" height="64" transform="translate(212 416) rotate(180)" xlink:href="#_4"/><use id="_4-8" data-name="4" width="8" height="64" transform="translate(109.0051 103.3482) rotate(135)" xlink:href="#_4"/><use width="8" height="64" transform="translate(357.9066 352.2498) rotate(135)" xlink:href="#_4"/><use id="_4-13" data-name="4" width="8" height="64" transform="translate(64 204) rotate(90)" xlink:href="#_4"/><use width="8" height="64" transform="translate(416 204) rotate(90)" xlink:href="#_4"/><use id="_4-18" data-name="4" width="8" height="64" transform="translate(103.3482 306.9949) rotate(45)" xlink:href="#_4"/><use width="8" height="64" transform="translate(352.2498 58.0934) rotate(45)" xlink:href="#_4"/><use width="16" height="16" transform="translate(130.1952 41.0676) rotate(-22.5)" xlink:href="#_5"/><use width="16" height="16" transform="translate(264.8998 366.2732) rotate(-22.5)" xlink:href="#_5"/><use width="16" height="16" transform="matrix(0.3827, -0.9239, 0.9239, 0.3827, 34.9447, 144.9773)" xlink:href="#_5"/><use width="16" height="16" transform="matrix(0.3827, -0.9239, 0.9239, 0.3827, 360.1503, 279.6819)" xlink:href="#_5"/><use width="16" height="16" transform="translate(41.0676 285.8048) rotate(-112.5)" xlink:href="#_5"/><use width="16" height="16" transform="translate(366.2732 151.1002) rotate(-112.5)" xlink:href="#_5"/><use width="16" height="16" transform="translate(144.9773 381.0553) rotate(-157.5)" xlink:href="#_5"/><use width="16" height="16" transform="translate(279.6819 55.8497) rotate(-157.5)" xlink:href="#_5"/><use width="8" height="8" transform="translate(169.0774 124.5378) rotate(-22.5)" xlink:href="#_6"/><use width="8" height="8" transform="translate(236.4701 287.2382) rotate(-22.5)" xlink:href="#_6"/><use width="8" height="8" transform="matrix(0.3827, -0.9239, 0.9239, 0.3827, 121.4236, 176.5212)" xlink:href="#_6"/><use width="8" height="8" transform="matrix(0.3827, -0.9239, 0.9239, 0.3827, 284.1239, 243.9139)" xlink:href="#_6"/><use width="8" height="8" transform="translate(124.485 246.9754) rotate(-112.5)" xlink:href="#_6"/><use width="8" height="8" transform="translate(287.1854 179.5827) rotate(-112.5)" xlink:href="#_6"/><use width="8" height="8" transform="translate(176.4684 294.6292) rotate(-157.5)" xlink:href="#_6"/><use width="8" height="8" transform="translate(243.8611 131.9289) rotate(-157.5)" xlink:href="#_6"/></symbol></defs><title>SOTM_Asia_logo_v5</title><use width="416" height="416" transform="translate(47.9999 48)" xlink:href="#Gl-r"/><text transform="translate(512 175.1579)" font-size="128" fill="#f16365" font-family="Dosis-SemiBold, Dosis"><tspan font-weight="700"><tspan letter-spacing="0.0418em">S</tspan><tspan x="70.8882" y="0" letter-spacing="0.0288em">O</tspan><tspan x="147.0269" y="0" letter-spacing="0.0418em">T</tspan><tspan x="218.042" y="0">M</tspan><tspan x="0" y="128" letter-spacing="0.1722em">ASI</tspan><tspan x="234.042" y="128">A</tspan></tspan><tspan font-family="Dosis-Regular, Dosis"><tspan x="0" y="256" letter-spacing="0.2162em">201</tspan><tspan x="241.7217" y="256">8</tspan></tspan></text></svg>