<?xml version="1.0" encoding="utf-8"?>
<!-- Generator: Adobe Illustrator 20.0.0, SVG Export Plug-In . SVG Version: 6.00 Build 0)  -->
<svg version="1.1" id="Layer_1" xmlns="http://www.w3.org/2000/svg" xmlns:xlink="http://www.w3.org/1999/xlink" x="0px" y="0px"
	 width="665px" height="260px" viewBox="0 0 665 260" style="enable-background:new 0 0 665 260;" xml:space="preserve">
<style type="text/css">
	.st0{fill:#039E49;}
	.st1{fill:none;stroke:#039E49;stroke-width:2;stroke-miterlimit:10;}
	.st2{fill:#393E44;}
</style>
<path class="st0" d="M203.7,92.8l0.1-1c0-25.2-21.2-47-51.3-56.5c13,12.7,22.1,32.7,24.4,56.5h0c0,0.4,0.1,0.7,0.1,1h-10
	c-2.8-29.1-17.2-52.4-35.6-60c7.9,18.1,9.1,51.6,9.4,60l-9.4-0.1c-1.3-40.9-9.3-60.6-12.8-62.4c-4.7,2.2-13.1,28.3-13.1,72.8V236
	h-9.6V103c0-21.3,2.4-53.1,9.9-70.3c-0.2,0.1-0.4,0.1-0.6,0.2c-0.4,0.2-0.8,0.3-1.1,0.5c-0.7,0.3-1.4,0.7-2.1,1.1
	c-0.1,0.1-0.2,0.1-0.3,0.2c-0.3,0.2-0.6,0.4-0.9,0.5c-2.6,1.5-5.1,3.4-7.4,5.5c-0.3,0.2-0.6,0.5-0.9,0.8c-0.4,0.4-0.8,0.8-1.2,1.2
	c-0.3,0.3-0.6,0.6-0.9,0.9c-1.5,1.6-3,3.3-4.4,5.2c-0.2,0.2-0.4,0.5-0.5,0.7c-1.6,2.2-3.2,4.6-4.6,7.2c-0.2,0.4-0.5,0.8-0.7,1.3
	c-0.1,0.1-0.1,0.3-0.2,0.4c-0.4,0.8-0.8,1.5-1.1,2.3c-0.1,0.1-0.1,0.3-0.2,0.4c-0.2,0.4-0.4,0.8-0.6,1.2c-0.2,0.5-0.4,1-0.6,1.5
	c-0.2,0.5-0.4,1-0.6,1.5c-0.2,0.4-0.3,0.8-0.5,1.2c-0.1,0.1-0.1,0.3-0.2,0.4c-0.3,0.9-0.6,1.7-0.9,2.6c0,0.1-0.1,0.2-0.1,0.4
	c-0.2,0.5-0.4,1.1-0.5,1.6s-0.3,1.1-0.5,1.6c-0.5,1.8-1,3.6-1.5,5.4c-0.1,0.4-0.2,0.8-0.3,1.2c-0.1,0.4-0.2,0.8-0.3,1.2
	c-0.1,0.3-0.1,0.7-0.2,1c-0.3,1.5-0.6,3.1-0.8,4.7c-0.2,1.2-0.4,2.3-0.5,3.6c-0.1,0.6-0.1,1.2-0.2,1.8c0,0.2-0.1,0.5-0.1,0.7
	c-0.1,0.9-0.2,1.7-0.2,2.6c0,0.5-0.1,1-0.1,1.5c0,0.5-0.1,1-0.1,1.5c0,0.4,0,0.8,0,1.2c0,0.5,0,1.1,0,1.7c0,0.6,0,1.2,0,1.9V236
	h-9.6l0-132.9c0-1.9,0.1-3.8,0.1-5.7c0-0.5,0.1-1,0.1-1.5c0-0.4,0-0.7,0.1-1c0.1-2.2,0.4-4.4,0.7-6.6c0.1-0.5,0.1-0.9,0.2-1.3
	c0.1-0.5,0.1-1,0.2-1.5c0.3-1.7,0.6-3.4,0.9-5c0.1-0.4,0.2-0.8,0.2-1.1c0.1-0.4,0.2-0.8,0.3-1.2c0.6-2.6,1.3-5.2,2.1-7.7
	c0.2-0.5,0.3-1.1,0.5-1.6c0.2-0.5,0.3-1,0.5-1.5c0.2-0.6,0.4-1.2,0.6-1.8c0.7-1.8,1.4-3.6,2.1-5.4c0.2-0.4,0.4-0.9,0.6-1.3
	c0.2-0.5,0.5-1,0.7-1.5c0.2-0.4,0.4-0.8,0.6-1.2c0.2-0.3,0.3-0.7,0.5-1c0.3-0.5,0.5-1.1,0.8-1.6c0.4-0.7,0.7-1.3,1.1-1.9
	c0.3-0.5,0.6-1,0.9-1.5c0.2-0.3,0.4-0.6,0.5-0.9c0.6-1,1.2-2,1.9-2.9c0.1-0.2,0.3-0.4,0.4-0.6c0.3-0.4,0.6-0.9,0.9-1.3
	c0,0,0.1-0.1,0.1-0.1c0.4-0.6,0.8-1.1,1.2-1.6c0.4-0.6,0.9-1.1,1.3-1.6c0.3-0.4,0.7-0.8,1-1.2c0.1-0.1,0.1-0.2,0.2-0.2
	c0.3-0.4,0.7-0.8,1-1.2c0,0,0.1-0.1,0.1-0.1c0.3-0.4,0.6-0.7,0.9-1c0.3-0.4,0.6-0.7,1-1c0.4-0.4,0.9-0.9,1.3-1.3
	C55,44.2,33.4,66.2,33.4,91.7L33.3,236h-9.5V91.7c0-39.2,42.5-71.2,94.7-71.2h0l0,0.7l0,0.3v-0.5l0-0.5c0.1,0,0.2,0,0.3,0v0
	c52,0.1,94.4,33,94.4,72.1L203.7,92.8z"/>
<path class="st0" d="M118.6,20.6v1l0-0.3L118.6,20.6C118.6,20.6,118.6,20.6,118.6,20.6z"/>
<rect x="203.7" y="200.3" class="st0" width="9.6" height="35.7"/>
<polyline class="st1" points="172.6,200.3 172.6,231.2 177.4,231.2 "/>
<polygon class="st0" points="177.4,236 167.8,236 167.8,200.3 177.4,200.3 "/>
<polygon class="st0" points="118.6,21.1 118.6,21.6 118.6,21.2 "/>
<polygon class="st0" points="141.5,236 132,236 132,200.3 141.6,200.3 "/>
<path class="st1" d="M69.6,231.2"/>
<polygon class="st0" points="60.1,236 60.1,236 60.1,103 "/>
<polygon class="st0" points="69.6,236 69.6,236 69.6,103 "/>
<g>
	<path class="st2" d="M121.1,143.5c0-4.3,0.7-8.3,2.1-11.8c1.4-3.5,3.4-6.6,5.9-9.1c2.5-2.5,5.5-4.4,9-5.8s7.3-2,11.5-2
		c4.2,0,8.1,0.6,11.6,1.9c3.5,1.3,6.6,3.2,9.1,5.7c2.6,2.5,4.5,5.5,6,9c1.4,3.5,2.1,7.5,2.1,11.8c0,4.2-0.7,8.1-2.1,11.6
		c-1.4,3.5-3.4,6.5-6,9c-2.6,2.5-5.6,4.5-9.1,5.9c-3.5,1.4-7.4,2.1-11.6,2.2c-4.2,0-8-0.7-11.5-2c-3.5-1.4-6.5-3.3-9-5.7
		c-2.5-2.5-4.5-5.4-5.9-8.9C121.8,151.6,121.1,147.8,121.1,143.5z M131.2,142.9c0,2.9,0.4,5.6,1.3,8c0.9,2.5,2.2,4.6,3.8,6.4
		c1.6,1.8,3.6,3.2,5.9,4.2c2.3,1,4.8,1.5,7.6,1.5s5.4-0.5,7.7-1.5c2.3-1,4.3-2.4,5.9-4.2c1.6-1.8,2.9-3.9,3.8-6.4
		c0.9-2.4,1.3-5.1,1.3-8c0-2.7-0.4-5.2-1.3-7.6c-0.9-2.3-2.2-4.4-3.8-6.2c-1.6-1.8-3.6-3.1-5.9-4.1c-2.3-1-4.8-1.5-7.7-1.5
		s-5.3,0.5-7.6,1.5c-2.3,1-4.2,2.4-5.9,4.1c-1.6,1.8-2.9,3.8-3.8,6.2C131.7,137.7,131.2,140.2,131.2,142.9z"/>
	<path class="st2" d="M182.3,133.7h8.7v5.5h0.2c1.3-2.2,3.1-3.9,5.4-4.9c2.2-1,4.7-1.5,7.3-1.5c2.8,0,5.3,0.5,7.6,1.5
		c2.2,1,4.2,2.4,5.7,4.1c1.6,1.7,2.8,3.8,3.6,6.1c0.8,2.4,1.2,4.9,1.2,7.6c0,2.7-0.4,5.2-1.3,7.6c-0.9,2.3-2.1,4.4-3.6,6.1
		c-1.6,1.7-3.4,3.1-5.6,4.1c-2.2,1-4.6,1.5-7.2,1.5c-1.7,0-3.3-0.2-4.6-0.5c-1.3-0.4-2.5-0.8-3.5-1.4s-1.9-1.2-2.6-1.8
		c-0.7-0.6-1.3-1.3-1.8-1.9h-0.2v22.1h-9.2L182.3,133.7L182.3,133.7z M212.8,152c0-1.4-0.2-2.8-0.7-4.1c-0.5-1.3-1.2-2.5-2.1-3.5
		c-0.9-1-2.1-1.8-3.4-2.5c-1.3-0.6-2.8-0.9-4.5-0.9c-1.7,0-3.2,0.3-4.5,0.9c-1.3,0.6-2.5,1.4-3.4,2.5c-0.9,1-1.7,2.2-2.1,3.5
		c-0.5,1.3-0.7,2.7-0.7,4.1c0,1.4,0.2,2.8,0.7,4.1c0.5,1.3,1.2,2.5,2.1,3.5c0.9,1,2.1,1.8,3.4,2.4c1.3,0.6,2.8,0.9,4.5,0.9
		c1.7,0,3.2-0.3,4.5-0.9c1.3-0.6,2.5-1.4,3.4-2.4c0.9-1,1.7-2.2,2.1-3.5C212.6,154.8,212.8,153.5,212.8,152z"/>
	<path class="st2" d="M234.1,155.2c0.3,2.8,1.4,4.9,3.2,6.4c1.8,1.5,4.1,2.3,6.7,2.3c2.3,0,4.2-0.5,5.8-1.4c1.6-0.9,2.9-2.1,4.1-3.6
		l6.6,5c-2.1,2.7-4.5,4.5-7.2,5.7c-2.7,1.1-5.4,1.7-8.3,1.7c-2.8,0-5.4-0.5-7.8-1.4c-2.5-0.9-4.6-2.2-6.4-3.9
		c-1.8-1.7-3.2-3.7-4.2-6.1c-1-2.4-1.6-5-1.6-7.9c0-2.9,0.5-5.6,1.6-7.9c1-2.4,2.5-4.4,4.2-6.1c1.8-1.7,3.9-3,6.4-3.9
		c2.5-0.9,5.1-1.4,7.8-1.4c2.6,0,4.9,0.4,7,1.3c2.1,0.9,3.9,2.2,5.4,3.9c1.5,1.7,2.7,3.8,3.5,6.2c0.8,2.5,1.3,5.3,1.3,8.5v2.5
		L234.1,155.2L234.1,155.2z M252.9,148.4c-0.1-2.7-0.9-4.8-2.5-6.4c-1.6-1.6-3.9-2.3-6.8-2.3c-2.8,0-4.9,0.8-6.5,2.4
		c-1.6,1.6-2.6,3.7-2.9,6.4L252.9,148.4L252.9,148.4z"/>
	<path class="st2" d="M266.9,133.7h8.7v5.9h0.2c0.9-1.8,2.2-3.4,4-4.8c1.8-1.4,4.2-2,7.3-2c2.5,0,4.5,0.4,6.2,1.2
		c1.7,0.8,3.1,1.9,4.2,3.2c1.1,1.3,1.8,2.9,2.3,4.6c0.5,1.7,0.7,3.5,0.7,5.4v23.2h-9.2v-18.6c0-1-0.1-2.2-0.2-3.4
		c-0.1-1.3-0.4-2.4-0.8-3.5c-0.4-1.1-1.1-2-2-2.8c-0.9-0.7-2.2-1.1-3.8-1.1c-1.5,0-2.8,0.3-3.9,0.8c-1,0.5-1.9,1.2-2.6,2.1
		c-0.7,0.9-1.2,1.9-1.5,3c-0.3,1.1-0.5,2.3-0.5,3.5v20.1h-9.2L266.9,133.7L266.9,133.7z"/>
	<path class="st2" d="M345.1,128.9c-2-2.1-3.9-3.6-5.8-4.3c-1.9-0.7-3.7-1.1-5.6-1.1c-2.8,0-5.4,0.5-7.6,1.5c-2.3,1-4.2,2.4-5.9,4.1
		c-1.6,1.8-2.9,3.8-3.8,6.2c-0.9,2.4-1.3,4.9-1.3,7.6c0,2.9,0.4,5.6,1.3,8c0.9,2.5,2.2,4.6,3.8,6.4c1.6,1.8,3.6,3.2,5.9,4.2
		c2.3,1,4.8,1.5,7.6,1.5c2.2,0,4.3-0.5,6.4-1.6c2.1-1,4-2.7,5.8-5l8,5.7c-2.5,3.4-5.4,5.8-9,7.4s-7.3,2.3-11.3,2.3
		c-4.2,0-8-0.7-11.5-2c-3.5-1.4-6.5-3.3-9-5.7c-2.5-2.5-4.5-5.4-5.9-8.9c-1.4-3.5-2.1-7.3-2.1-11.6c0-4.3,0.7-8.3,2.1-11.8
		c1.4-3.5,3.4-6.6,5.9-9.1s5.5-4.4,9-5.8c3.5-1.4,7.3-2,11.5-2c3.7,0,7.1,0.7,10.2,2c3.1,1.3,6.1,3.5,8.8,6.6L345.1,128.9z"/>
	<path class="st2" d="M381.3,165.4h-0.2c-1.3,2.1-3,3.6-5.1,4.6c-2,0.9-4.3,1.4-6.7,1.4c-1.7,0-3.3-0.2-4.9-0.7
		c-1.6-0.5-3-1.1-4.3-2.1c-1.3-0.9-2.3-2.1-3-3.4c-0.8-1.4-1.1-3-1.1-4.8c0-2,0.4-3.7,1.1-5.1c0.7-1.4,1.7-2.6,2.9-3.5
		c1.2-0.9,2.6-1.7,4.2-2.3c1.6-0.6,3.2-1,4.9-1.3c1.7-0.3,3.4-0.5,5.2-0.5c1.7-0.1,3.4-0.1,4.9-0.1h2.3v-1c0-2.3-0.8-4-2.4-5.2
		c-1.6-1.1-3.6-1.7-6-1.7c-1.9,0-3.8,0.3-5.4,1c-1.7,0.7-3.1,1.6-4.4,2.8l-4.8-4.8c2-2.1,4.4-3.6,7.2-4.5c2.7-0.9,5.6-1.4,8.5-1.4
		c2.6,0,4.8,0.3,6.6,0.9c1.8,0.6,3.3,1.3,4.4,2.3c1.2,0.9,2.1,2,2.7,3.2c0.6,1.2,1.1,2.4,1.4,3.6c0.3,1.2,0.4,2.4,0.5,3.6
		c0.1,1.1,0.1,2.2,0.1,3v21.1h-8.3L381.3,165.4L381.3,165.4z M380.8,153.9h-1.9c-1.3,0-2.7,0.1-4.3,0.1c-1.6,0.1-3.1,0.3-4.5,0.7
		c-1.4,0.4-2.6,0.9-3.6,1.7c-1,0.7-1.5,1.8-1.5,3.1c0,0.9,0.2,1.6,0.6,2.2c0.4,0.6,0.9,1.1,1.5,1.5c0.6,0.4,1.3,0.7,2.1,0.9
		c0.8,0.2,1.5,0.3,2.3,0.3c3.2,0,5.5-0.8,7-2.3c1.5-1.5,2.3-3.6,2.3-6.2L380.8,153.9L380.8,153.9z"/>
	<path class="st2" d="M432.8,133.7v33.5c0,3.3-0.4,6.3-1.2,9c-0.8,2.7-2.1,5-3.8,6.8s-3.9,3.3-6.5,4.3c-2.6,1-5.7,1.5-9.3,1.5
		c-3.4,0-6.7-0.4-9.7-1.3c-3.1-0.9-5.9-2.4-8.5-4.7l5.5-7.5c1.8,1.7,3.8,3,5.7,3.9c2,0.9,4.3,1.4,6.9,1.4c2.2,0,4-0.3,5.6-0.9
		c1.5-0.6,2.7-1.5,3.6-2.5c0.9-1.1,1.5-2.4,1.9-3.9c0.4-1.5,0.6-3.2,0.6-5v-2.7h-0.1c-1.3,1.8-3.1,3.1-5.3,4
		c-2.2,0.9-4.4,1.3-6.7,1.3c-2.8,0-5.3-0.5-7.5-1.5c-2.3-1-4.2-2.3-5.8-4c-1.6-1.7-2.9-3.7-3.7-6c-0.9-2.3-1.3-4.7-1.3-7.3
		c0-2.7,0.4-5.2,1.2-7.6c0.8-2.4,2-4.4,3.6-6.1c1.6-1.7,3.5-3.1,5.7-4.1c2.2-1,4.8-1.5,7.6-1.5c2.6,0,5,0.5,7.3,1.5
		c2.2,1,4,2.7,5.4,4.9h0.1v-5.5L432.8,133.7L432.8,133.7z M413.2,141c-1.6,0-3.1,0.3-4.4,0.8c-1.3,0.5-2.5,1.3-3.4,2.2
		c-0.9,0.9-1.7,2.1-2.2,3.4c-0.5,1.4-0.8,2.9-0.8,4.5c0,1.5,0.3,2.9,0.8,4.1c0.5,1.3,1.3,2.4,2.3,3.4c1,1,2.1,1.7,3.4,2.3
		c1.3,0.6,2.8,0.8,4.3,0.8c1.7,0,3.2-0.3,4.6-0.8c1.3-0.6,2.5-1.3,3.4-2.3c0.9-0.9,1.7-2.1,2.2-3.4c0.5-1.3,0.8-2.8,0.8-4.3
		c0-3.2-1-5.8-2.9-7.8C419.2,142,416.6,141,413.2,141z"/>
	<path class="st2" d="M445.6,155.2c0.3,2.8,1.4,4.9,3.2,6.4c1.8,1.5,4.1,2.3,6.7,2.3c2.3,0,4.2-0.5,5.8-1.4c1.6-0.9,2.9-2.1,4.1-3.6
		l6.6,5c-2.1,2.7-4.5,4.5-7.2,5.7s-5.4,1.7-8.3,1.7c-2.8,0-5.4-0.5-7.8-1.4c-2.5-0.9-4.6-2.2-6.4-3.9c-1.8-1.7-3.2-3.7-4.2-6.1
		c-1.1-2.4-1.6-5-1.6-7.9c0-2.9,0.5-5.6,1.6-7.9c1-2.4,2.5-4.4,4.2-6.1c1.8-1.7,3.9-3,6.4-3.9c2.4-0.9,5.1-1.4,7.8-1.4
		c2.6,0,4.9,0.4,7,1.3c2.1,0.9,3.9,2.2,5.4,3.9c1.5,1.7,2.7,3.8,3.5,6.2c0.8,2.5,1.3,5.3,1.3,8.5v2.5L445.6,155.2L445.6,155.2z
		 M464.4,148.4c0-2.7-0.9-4.8-2.5-6.4c-1.6-1.6-3.9-2.3-6.8-2.3c-2.8,0-4.9,0.8-6.5,2.4c-1.6,1.6-2.6,3.7-3,6.4L464.4,148.4
		L464.4,148.4z"/>
	<path class="st2" d="M498,116.2h21.4c3.6,0,7,0.5,10.3,1.6c3.3,1.1,6.3,2.8,8.8,5c2.6,2.2,4.6,5.1,6.1,8.5c1.5,3.4,2.3,7.4,2.3,12
		c0,4.6-0.9,8.7-2.6,12.1c-1.8,3.4-4,6.2-6.8,8.4c-2.8,2.2-5.9,3.9-9.3,5c-3.4,1.1-6.7,1.6-10,1.6H498V116.2z M514.9,161.7
		c3,0,5.9-0.3,8.5-1c2.7-0.7,5-1.8,7-3.2c2-1.5,3.6-3.3,4.7-5.7c1.1-2.3,1.7-5.1,1.7-8.5c0-3.3-0.5-6.1-1.5-8.4
		c-1-2.3-2.4-4.2-4.2-5.7c-1.8-1.5-4-2.5-6.4-3.2c-2.5-0.7-5.2-1-8.2-1h-8.8v36.8L514.9,161.7L514.9,161.7z"/>
	<path class="st2" d="M573.7,165.4h-0.2c-1.3,2.1-3,3.6-5.1,4.6c-2,0.9-4.3,1.4-6.7,1.4c-1.7,0-3.3-0.2-4.9-0.7s-3-1.1-4.3-2.1
		c-1.3-0.9-2.3-2.1-3-3.4c-0.8-1.4-1.1-3-1.1-4.8c0-2,0.4-3.7,1.1-5.1c0.7-1.4,1.7-2.6,2.9-3.5c1.2-0.9,2.6-1.7,4.2-2.3
		c1.6-0.6,3.2-1,4.9-1.3c1.7-0.3,3.4-0.5,5.2-0.5c1.7-0.1,3.4-0.1,4.9-0.1h2.3v-1c0-2.3-0.8-4-2.4-5.2s-3.6-1.7-6-1.7
		c-1.9,0-3.8,0.3-5.4,1c-1.7,0.7-3.1,1.6-4.4,2.8l-4.8-4.8c2-2.1,4.4-3.6,7.2-4.5c2.7-0.9,5.6-1.4,8.5-1.4c2.6,0,4.8,0.3,6.6,0.9
		s3.3,1.3,4.4,2.3c1.2,0.9,2.1,2,2.7,3.2c0.6,1.2,1.1,2.4,1.4,3.6c0.3,1.2,0.4,2.4,0.5,3.6c0.1,1.1,0.1,2.2,0.1,3v21.1h-8.3
		L573.7,165.4L573.7,165.4z M573.2,153.9h-1.9c-1.3,0-2.7,0.1-4.3,0.1c-1.6,0.1-3.1,0.3-4.5,0.7c-1.4,0.4-2.6,0.9-3.6,1.7
		c-1,0.7-1.5,1.8-1.5,3.1c0,0.9,0.2,1.6,0.6,2.2c0.4,0.6,0.9,1.1,1.5,1.5c0.6,0.4,1.3,0.7,2.1,0.9c0.8,0.2,1.5,0.3,2.3,0.3
		c3.2,0,5.5-0.8,7-2.3c1.5-1.5,2.3-3.6,2.3-6.2L573.2,153.9L573.2,153.9z"/>
	<path class="st2" d="M583.2,141.5v-7.8h7.6V123h9.2v10.6h10.1v7.8H600v16.1c0,1.8,0.3,3.3,1,4.4c0.7,1.1,2.1,1.6,4.1,1.6
		c0.8,0,1.7-0.1,2.7-0.3c1-0.2,1.7-0.5,2.3-0.9v7.7c-1,0.5-2.2,0.8-3.6,1s-2.6,0.3-3.7,0.3c-2.4,0-4.5-0.3-6-0.8
		c-1.6-0.5-2.8-1.4-3.7-2.4c-0.9-1.1-1.5-2.5-1.8-4.1c-0.3-1.6-0.5-3.5-0.5-5.7v-16.8L583.2,141.5L583.2,141.5z"/>
	<path class="st2" d="M637.6,165.4h-0.2c-1.3,2.1-3,3.6-5.1,4.6c-2,0.9-4.3,1.4-6.7,1.4c-1.7,0-3.3-0.2-4.9-0.7
		c-1.6-0.5-3-1.1-4.3-2.1c-1.3-0.9-2.3-2.1-3-3.4c-0.8-1.4-1.1-3-1.1-4.8c0-2,0.4-3.7,1.1-5.1c0.7-1.4,1.7-2.6,2.9-3.5
		c1.2-0.9,2.6-1.7,4.2-2.3c1.6-0.6,3.2-1,4.9-1.3c1.7-0.3,3.4-0.5,5.2-0.5c1.7-0.1,3.4-0.1,4.9-0.1h2.3v-1c0-2.3-0.8-4-2.4-5.2
		c-1.6-1.1-3.6-1.7-6.1-1.7c-1.9,0-3.7,0.3-5.4,1c-1.7,0.7-3.1,1.6-4.4,2.8l-4.8-4.8c2-2.1,4.4-3.6,7.2-4.5c2.7-0.9,5.6-1.4,8.5-1.4
		c2.6,0,4.8,0.3,6.6,0.9c1.8,0.6,3.3,1.3,4.4,2.3c1.2,0.9,2.1,2,2.7,3.2c0.6,1.2,1.1,2.4,1.4,3.6c0.3,1.2,0.4,2.4,0.5,3.6
		c0,1.1,0.1,2.2,0.1,3v21.1h-8.3L637.6,165.4L637.6,165.4z M637,153.9h-1.9c-1.3,0-2.7,0.1-4.3,0.1c-1.6,0.1-3.1,0.3-4.5,0.7
		s-2.6,0.9-3.6,1.7c-1,0.7-1.5,1.8-1.5,3.1c0,0.9,0.2,1.6,0.6,2.2c0.4,0.6,0.9,1.1,1.5,1.5c0.6,0.4,1.3,0.7,2.1,0.9
		c0.8,0.2,1.5,0.3,2.3,0.3c3.2,0,5.5-0.8,7-2.3c1.5-1.5,2.3-3.6,2.3-6.2L637,153.9L637,153.9z"/>
</g>
</svg>
